<?xml version="1.0" encoding="UTF-8"?><svg xmlns="http://www.w3.org/2000/svg" xmlns:xlink="http://www.w3.org/1999/xlink" viewBox="0 0 1080 1080"><defs><style>.cls-1,.cls-2,.cls-3,.cls-4,.cls-5,.cls-6,.cls-7{fill:#fff;}.cls-8{fill:url(#Dégradé_sans_nom_16);}.cls-2{opacity:.15;}.cls-9{fill:none;stroke:#000;stroke-linecap:round;stroke-miterlimit:10;stroke-width:13px;}.cls-3{opacity:.6;}.cls-10{fill:url(#Dégradé_sans_nom_223);}.cls-4{opacity:.7;}.cls-5{opacity:.3;}.cls-6{opacity:.4;}.cls-7{opacity:.35;}</style><linearGradient id="Dégradé_sans_nom_223" x1="553.25" y1="632.59" x2="553.25" y2="46.63" gradientUnits="userSpaceOnUse"><stop offset=".24" stop-color="#f8b98c"/><stop offset=".93" stop-color="#c8748b"/></linearGradient><linearGradient id="Dégradé_sans_nom_16" x1="638.21" y1="639.5" x2="638.21" y2="532.5" gradientUnits="userSpaceOnUse"><stop offset="0" stop-color="#acece4"/><stop offset="1" stop-color="#90c0db"/></linearGradient></defs><g id="txt_white"><path class="cls-1" d="m131.95,687.38c7.14,0,13.29,1.4,18.43,4.2,5.15,2.8,8.8,6.9,10.96,12.3,1.83,1.5,3.24,3.29,4.23,5.38,1,2.09,1.5,4.04,1.5,5.88,0,4.5-1.32,9.17-3.96,14-2.64,4.84-5.53,9.67-8.66,14.5-3.14,4.84-6.02,9.67-8.66,14.5-2.64,4.84-3.96,9.5-3.96,14,0,1.17-.43,1.75-1.27,1.75-1.52,0-3.25-.38-5.2-1.12s-3.72-1.79-5.32-3.12c-1.61-1.33-3-2.88-4.18-4.62s-1.77-3.62-1.77-5.62c0-4.66,1.3-8.88,3.91-12.62s5.51-7.33,8.71-10.75c3.2-3.41,6.1-6.75,8.71-10s3.91-6.88,3.91-10.88-1.26-7.04-3.79-9.62c-2.52-2.58-5.72-3.88-9.59-3.88-2.02,0-4.38.58-7.06,1.75-5.18,2.33-10.06,6.04-14.64,11.11-4.59,5.07-8.75,10.94-12.5,17.59s-7.04,13.85-9.88,21.59c-2.84,7.73-5.09,15.47-6.75,23.21-1.67,7.73-2.71,15.18-3.12,22.33-.42,7.16-.12,13.48.88,18.96,1,5.49,2.83,9.9,5.5,13.23,2.66,3.33,6.16,4.99,10.5,4.99,3.66,0,7-1.16,10-3.5,3-2.33,5.66-5.25,8-8.75,2.33-3.5,4.33-7.33,6-11.5,1.66-4.16,3-8.16,4-12-5.34.67-10.46,1.71-15.38,3.12-4.92,1.42-9.79,3.21-14.62,5.38-1,.5-1.75.17-2.25-1-.84-2.16-1.04-4.71-.62-7.62.41-2.91,1.29-5.38,2.62-7.38.83-1.16,2-1.83,3.5-2,8-1.66,15.59-2.71,22.78-3.12,7.19-.41,14.73.04,22.64,1.38,1.34.34,2.35,1.5,3.02,3.5s1.01,3.75,1.01,5.25c0,2-.76,2.84-2.28,2.5-.85-.16-1.69-.29-2.54-.38-.84-.08-1.69-.12-2.53-.12.34.34.68.62,1.01.88s.68.54,1.02.88c1.18,1.17,1.73,2.17,1.64,3-.09.84-.38,2.17-.89,4-1.69,6.17-3.42,12.5-5.19,19s-3.34,12.71-4.69,18.62-2.49,11.21-3.42,15.88c-.93,4.66-1.48,8.25-1.64,10.75,0,1.83-1.07,2.75-3.2,2.75-1.48,0-3.08-.38-4.81-1.12s-3.33-1.71-4.81-2.87c-1.48-1.17-2.67-2.46-3.57-3.88-.91-1.42-1.36-2.79-1.36-4.12s.2-3.09.61-5.25c.41-2.17.86-4.46,1.36-6.87.49-2.41,1.03-4.87,1.61-7.37.57-2.5,1.11-4.91,1.6-7.25-1,1.53-2.29,3.02-3.88,4.46-1.59,1.45-3.38,2.76-5.38,3.95-2,1.19-4.09,2.12-6.25,2.8-2.17.68-4.25,1.02-6.25,1.02-9.17,0-16.62-2.34-22.38-7.01-5.75-4.67-10.04-10.81-12.88-18.4-2.84-7.59-4.25-16.23-4.25-25.91s1.12-19.57,3.38-29.67c2.25-10.1,5.62-19.99,10.12-29.67s9.88-18.32,16.12-25.91,13.25-13.73,21-18.41c7.75-4.67,16.11-7.01,25.08-7.01Z"/><path class="cls-1" d="m196.58,832.38c.33-1.66.58-3.25.75-4.75.16-1.5.33-3.08.5-4.75.16-.33.25-.62.25-.88s.08-.54.25-.88c-3.84,7.67-8.04,14.29-12.62,19.88-4.59,5.59-9.71,8.38-15.38,8.38-2.34,0-4.62-.54-6.88-1.62-2.25-1.08-4.21-2.46-5.88-4.12-1.67-1.66-2.96-3.5-3.88-5.5-.92-2-1.29-3.91-1.12-5.75.33-1.66.54-3.25.62-4.75.08-1.5.29-3.08.62-4.75,1.83-11.83,4.41-23.96,7.75-36.38,3.33-12.41,7.16-23.62,11.5-33.62,1-2.16,2.25-3.25,3.75-3.25,1.16,0,2.54.25,4.12.75,1.58.5,3.12,1.12,4.62,1.88s2.88,1.54,4.12,2.38c1.25.84,2.29,1.59,3.12,2.25,1.33,1,1.58,2.21.75,3.62-.84,1.42-1.5,2.79-2,4.12-1.84,4.84-3.62,9.96-5.38,15.38-1.75,5.42-3.38,10.88-4.88,16.38s-2.88,10.92-4.12,16.25c-1.25,5.34-2.29,10.25-3.12,14.75-.67,2.84-.62,5.04.12,6.62.75,1.59,1.79,2.38,3.12,2.38,2,0,4.12-1.38,6.38-4.12s4.5-6.25,6.75-10.5,4.46-9,6.62-14.25c2.16-5.25,4.16-10.33,6-15.25,1.83-4.91,3.41-9.38,4.75-13.38,1.33-4,2.33-7,3-9,1-3,2-5.91,3-8.75,1-2.83,2.08-5.58,3.25-8.25,1-2.16,2.25-3.25,3.75-3.25,1.16,0,2.54.25,4.12.75,1.58.5,3.12,1.12,4.62,1.88s2.88,1.54,4.12,2.38c1.25.84,2.29,1.59,3.12,2.25,1.33,1,1.58,2.21.75,3.62-.84,1.42-1.42,2.79-1.75,4.12-2.17,5.5-4.21,11.34-6.12,17.5-1.92,6.17-3.71,12.34-5.38,18.5-1.67,6.17-3.12,12.12-4.38,17.88s-2.29,10.88-3.12,15.38c-.34,1.84-.09,2.84.75,3,.83.17,1.83-.25,3-1.25,3.66-3.83,7.16-8.38,10.5-13.62,3.33-5.25,6.38-10.71,9.12-16.38,2.75-5.66,5.25-11.25,7.5-16.75s4.21-10.41,5.88-14.75c.5-1,1.16-1.66,2-2,.83-.33,1.66-.33,2.5,0,.83.34,1.46.92,1.88,1.75.41.84.46,1.75.12,2.75-1.17,2.84-2.67,6.59-4.5,11.25-1.84,4.67-4,9.71-6.5,15.12-2.5,5.42-5.25,10.88-8.25,16.38s-6.17,10.46-9.5,14.88c-3.34,4.42-6.79,8.04-10.38,10.88-3.59,2.84-7.12,4.25-10.62,4.25-4.34,0-7.79-1.83-10.38-5.5-2.59-3.66-3.71-7.5-3.38-11.5Z"/><path class="cls-1" d="m235.57,832.38c.33-1.66.54-3.25.62-4.75.08-1.5.29-3.08.62-4.75,1.83-11.83,4.41-23.96,7.75-36.38,3.33-12.41,7.16-23.62,11.5-33.62,1-2.16,2.25-3.25,3.75-3.25,1.16,0,2.54.25,4.12.75,1.58.5,3.12,1.12,4.62,1.88s2.88,1.54,4.12,2.38c1.25.84,2.29,1.59,3.12,2.25,1.33,1,1.58,2.21.75,3.62-.84,1.42-1.42,2.79-1.75,4.12-2.17,5.5-4.21,11.34-6.12,17.5-1.92,6.17-3.71,12.34-5.38,18.5-1.67,6.17-3.12,12.12-4.38,17.88s-2.29,10.88-3.12,15.38c-.34,1.84-.09,2.84.75,3,.83.17,1.75-.25,2.75-1.25,3.83-3.83,7.41-8.38,10.75-13.62,3.33-5.25,6.38-10.71,9.12-16.38,2.75-5.66,5.25-11.25,7.5-16.75s4.21-10.41,5.88-14.75c.5-1,1.16-1.66,2-2,.83-.33,1.66-.33,2.5,0,.83.34,1.46.92,1.88,1.75.41.84.46,1.75.12,2.75-1.17,2.84-2.67,6.59-4.5,11.25-1.84,4.67-4,9.71-6.5,15.12-2.5,5.42-5.25,10.88-8.25,16.38s-6.17,10.46-9.5,14.88c-3.34,4.42-6.79,8.04-10.38,10.88-3.59,2.84-7.12,4.25-10.62,4.25-2.17,0-4.12-.5-5.88-1.5s-3.25-2.33-4.5-4c-1.25-1.66-2.17-3.5-2.75-5.5-.59-2-.79-4-.62-6Zm40.25-127.75c2.33-4.66,4.33-7,6-7,1.33.17,3.54.92,6.62,2.25,3.08,1.34,5.79,2.84,8.12,4.5,3.5,2.34,3.83,5.75,1,10.25-1.17,1.84-2.79,4.34-4.88,7.5-2.09,3.17-4.29,6.25-6.62,9.25-2.34,3-4.62,5.62-6.88,7.88s-4.12,3.38-5.62,3.38c-3.5.17-5.54-1.46-6.12-4.88-.59-3.41-.38-7.33.62-11.75,1-4.41,2.33-8.71,4-12.88,1.66-4.16,2.91-7,3.75-8.5Z"/><path class="cls-1" d="m321.82,824.88c0-.66.04-1.29.12-1.88.08-.58.12-1.29.12-2.12-1.84,3.84-3.79,7.46-5.88,10.88-2.09,3.42-4.34,6.42-6.75,9-2.42,2.59-5,4.67-7.75,6.25-2.75,1.59-5.62,2.38-8.62,2.38-6.34,0-10.88-2.04-13.62-6.12-2.75-4.08-4.29-8.79-4.62-14.12-.33-6.66.16-13.96,1.5-21.88,1.33-7.91,3.41-15.58,6.25-23,2.83-7.41,6.46-14.16,10.88-20.25,4.41-6.08,9.54-10.71,15.38-13.88,2-1.16,4.08-1.71,6.25-1.62,2.16.09,4.29.5,6.38,1.25,2.08.75,4.12,1.67,6.12,2.75,2,1.09,3.91,2.04,5.75,2.88,2-9,4.04-17.54,6.12-25.62,2.08-8.08,4.21-15.21,6.38-21.38,2.16-6.16,4.16-11.08,6-14.75,1.83-3.66,3.5-5.5,5-5.5,1.16,0,3,.38,5.5,1.12s4.96,1.62,7.38,2.62c2.41,1,4.54,2.09,6.38,3.25,1.83,1.17,2.75,2.25,2.75,3.25,0,.67-.25,1.09-.75,1.25-.5.84-1.04,1.54-1.62,2.12s-1.04,1.29-1.38,2.12c-3.17,5.67-6.46,13.84-9.88,24.5-3.42,10.67-6.67,22.21-9.75,34.62-3.09,12.42-5.84,24.75-8.25,37-2.42,12.25-4.21,22.79-5.38,31.62-.67,5.5.66,6.42,4,2.75,3.66-3.83,7.08-8.38,10.25-13.62,3.16-5.25,6.12-10.62,8.88-16.12s5.21-10.91,7.38-16.25c2.16-5.33,4-10.08,5.5-14.25.5-1,1.16-1.66,2-2,.83-.33,1.66-.33,2.5,0,.83.34,1.46.92,1.88,1.75.41.84.46,1.75.12,2.75-1.17,2.84-2.67,6.59-4.5,11.25-1.84,4.67-4,9.71-6.5,15.12-2.5,5.42-5.25,10.88-8.25,16.38s-6.17,10.46-9.5,14.88c-3.34,4.42-6.79,8.04-10.38,10.88-3.59,2.84-7.12,4.25-10.62,4.25s-6.17-.83-8-2.5c-1.84-1.66-3.12-3.71-3.88-6.12-.75-2.41-1.12-5.04-1.12-7.88s.08-5.5.25-8Zm4-64.75c-4.17,0-7.96,2.17-11.38,6.5-3.42,4.34-6.38,9.71-8.88,16.12-2.5,6.42-4.59,13.17-6.25,20.25-1.67,7.09-2.75,13.38-3.25,18.88-.34,4.34-.04,7.71.88,10.12.91,2.42,2.29,3.62,4.12,3.62,2.83,0,5.91-2.66,9.25-8,2.83-4.33,5.58-9.54,8.25-15.62,2.66-6.08,5.08-12.21,7.25-18.38.83-4.83,1.71-9.71,2.62-14.62.91-4.91,1.88-9.88,2.88-14.88-1.17-2.66-3-4-5.5-4Z"/><path class="cls-1" d="m393.07,849.38c-7.5,0-13.62-1.46-18.38-4.38-4.75-2.91-8.29-6.71-10.62-11.38-2.34-4.66-3.67-10.04-4-16.12-.34-6.08.21-12.25,1.62-18.5,1.41-6.25,3.46-12.41,6.12-18.5,2.66-6.08,5.83-11.46,9.5-16.12,3.66-4.66,7.62-8.46,11.88-11.38,4.25-2.91,8.62-4.38,13.12-4.38,2.33,0,5.04.71,8.12,2.12,3.08,1.42,5.96,3.29,8.62,5.62,2.66,2.34,4.91,4.92,6.75,7.75,1.83,2.84,2.75,5.59,2.75,8.25,0,5.84-1.5,11.25-4.5,16.25s-6.84,9.38-11.5,13.12c-4.67,3.75-9.71,6.67-15.12,8.75-5.42,2.09-10.54,3.12-15.38,3.12-.34,6.67.62,12.34,2.88,17,2.25,4.67,6.29,7,12.12,7,5,0,9.88-2.25,14.62-6.75s9.16-10.04,13.25-16.62c4.08-6.58,7.75-13.54,11-20.88,3.25-7.33,5.96-13.83,8.12-19.5.33-1,.96-1.62,1.88-1.88.91-.25,1.75-.21,2.5.12.75.34,1.38.92,1.88,1.75.5.84.5,1.75,0,2.75-2.34,6.17-5.29,13.42-8.88,21.75-3.59,8.34-7.79,16.29-12.62,23.88-4.84,7.59-10.25,14-16.25,19.25s-12.5,7.88-19.5,7.88Zm9.75-85.75c-2.5,1.84-4.88,4.38-7.12,7.62s-4.29,6.88-6.12,10.88c-1.84,4-3.38,8.25-4.62,12.75s-2.12,8.84-2.62,13c3.33,0,6.71-1.16,10.12-3.5,3.41-2.33,6.5-5.38,9.25-9.12s4.96-8.04,6.62-12.88c1.66-4.83,2.5-9.75,2.5-14.75,0-2.66-.88-4.38-2.62-5.12s-3.54-.38-5.38,1.12Z"/><path class="cls-1" d="m511.56,824.88c0-.66.04-1.29.12-1.88.08-.58.12-1.29.12-2.12-1.84,3.84-3.79,7.46-5.88,10.88-2.09,3.42-4.34,6.42-6.75,9-2.42,2.59-5,4.67-7.75,6.25-2.75,1.59-5.62,2.38-8.62,2.38-6.34,0-10.88-2.04-13.62-6.12-2.75-4.08-4.29-8.79-4.62-14.12-.33-6.66.16-13.96,1.5-21.88,1.33-7.91,3.41-15.58,6.25-23,2.83-7.41,6.46-14.16,10.88-20.25,4.41-6.08,9.54-10.71,15.38-13.88,2-1.16,4.08-1.71,6.25-1.62,2.16.09,4.29.5,6.38,1.25,2.08.75,4.12,1.67,6.12,2.75,2,1.09,3.91,2.04,5.75,2.88,2-9,4.04-17.54,6.12-25.62,2.08-8.08,4.21-15.21,6.38-21.38,2.16-6.16,4.16-11.08,6-14.75,1.83-3.66,3.5-5.5,5-5.5,1.16,0,3,.38,5.5,1.12s4.96,1.62,7.38,2.62c2.41,1,4.54,2.09,6.38,3.25,1.83,1.17,2.75,2.25,2.75,3.25,0,.67-.25,1.09-.75,1.25-.5.84-1.04,1.54-1.62,2.12s-1.04,1.29-1.38,2.12c-3.17,5.67-6.46,13.84-9.88,24.5-3.42,10.67-6.67,22.21-9.75,34.62-3.09,12.42-5.84,24.75-8.25,37-2.42,12.25-4.21,22.79-5.38,31.62-.67,5.5.66,6.42,4,2.75,3.66-3.83,7.08-8.38,10.25-13.62,3.16-5.25,6.13-10.62,8.88-16.12s5.21-10.91,7.38-16.25c2.16-5.33,4-10.08,5.5-14.25.5-1,1.16-1.66,2-2,.83-.33,1.66-.33,2.5,0,.83.34,1.46.92,1.88,1.75.41.84.46,1.75.12,2.75-1.17,2.84-2.67,6.59-4.5,11.25-1.84,4.67-4,9.71-6.5,15.12-2.5,5.42-5.25,10.88-8.25,16.38s-6.17,10.46-9.5,14.88c-3.34,4.42-6.79,8.04-10.38,10.88-3.59,2.84-7.12,4.25-10.62,4.25s-6.17-.83-8-2.5c-1.84-1.66-3.12-3.71-3.88-6.12-.75-2.41-1.12-5.04-1.12-7.88s.08-5.5.25-8Zm4-64.75c-4.17,0-7.96,2.17-11.38,6.5-3.42,4.34-6.38,9.71-8.88,16.12-2.5,6.42-4.59,13.17-6.25,20.25-1.67,7.09-2.75,13.38-3.25,18.88-.34,4.34-.04,7.71.88,10.12.91,2.42,2.29,3.62,4.12,3.62,2.83,0,5.91-2.66,9.25-8,2.83-4.33,5.58-9.54,8.25-15.62,2.66-6.08,5.08-12.21,7.25-18.38.83-4.83,1.71-9.71,2.62-14.62.91-4.91,1.88-9.88,2.88-14.88-1.17-2.66-3-4-5.5-4Z"/><path class="cls-1" d="m593.56,832.38c.33-1.66.58-3.25.75-4.75.16-1.5.33-3.08.5-4.75.16-.33.25-.62.25-.88s.08-.54.25-.88c-3.84,7.67-8.04,14.29-12.62,19.88-4.59,5.59-9.71,8.38-15.38,8.38-2.34,0-4.62-.54-6.88-1.62-2.25-1.08-4.21-2.46-5.88-4.12-1.67-1.66-2.96-3.5-3.88-5.5-.92-2-1.29-3.91-1.12-5.75.33-1.66.54-3.25.62-4.75.08-1.5.29-3.08.62-4.75,1.83-11.83,4.41-23.96,7.75-36.38,3.33-12.41,7.16-23.62,11.5-33.62,1-2.16,2.25-3.25,3.75-3.25,1.16,0,2.54.25,4.12.75,1.58.5,3.12,1.12,4.62,1.88s2.88,1.54,4.12,2.38c1.25.84,2.29,1.59,3.12,2.25,1.33,1,1.58,2.21.75,3.62-.84,1.42-1.5,2.79-2,4.12-1.84,4.84-3.62,9.96-5.38,15.38-1.75,5.42-3.38,10.88-4.88,16.38s-2.88,10.92-4.12,16.25c-1.25,5.34-2.29,10.25-3.12,14.75-.67,2.84-.62,5.04.12,6.62.75,1.59,1.79,2.38,3.12,2.38,2,0,4.12-1.38,6.38-4.12s4.5-6.25,6.75-10.5,4.46-9,6.62-14.25c2.16-5.25,4.16-10.33,6-15.25,1.83-4.91,3.41-9.38,4.75-13.38,1.33-4,2.33-7,3-9,1-3,2-5.91,3-8.75,1-2.83,2.08-5.58,3.25-8.25,1-2.16,2.25-3.25,3.75-3.25,1.16,0,2.54.25,4.12.75,1.58.5,3.12,1.12,4.62,1.88s2.88,1.54,4.12,2.38c1.25.84,2.29,1.59,3.12,2.25,1.33,1,1.58,2.21.75,3.62-.84,1.42-1.42,2.79-1.75,4.12-2.17,5.5-4.21,11.34-6.12,17.5-1.92,6.17-3.71,12.34-5.38,18.5-1.67,6.17-3.12,12.12-4.38,17.88s-2.29,10.88-3.12,15.38c-.34,1.84-.09,2.84.75,3,.83.17,1.83-.25,3-1.25,3.66-3.83,7.16-8.38,10.5-13.62,3.33-5.25,6.38-10.71,9.12-16.38,2.75-5.66,5.25-11.25,7.5-16.75s4.21-10.41,5.88-14.75c.5-1,1.16-1.66,2-2,.83-.33,1.66-.33,2.5,0,.83.34,1.46.92,1.88,1.75.41.84.46,1.75.12,2.75-1.17,2.84-2.67,6.59-4.5,11.25-1.84,4.67-4,9.71-6.5,15.12-2.5,5.42-5.25,10.88-8.25,16.38s-6.17,10.46-9.5,14.88c-3.34,4.42-6.79,8.04-10.38,10.88-3.59,2.84-7.12,4.25-10.62,4.25-4.34,0-7.79-1.83-10.38-5.5-2.59-3.66-3.71-7.5-3.38-11.5Z"/><path class="cls-1" d="m745.68,687.38c7.14,0,13.29,1.4,18.43,4.2,5.15,2.8,8.8,6.9,10.96,12.3,1.83,1.5,3.24,3.29,4.23,5.38,1,2.09,1.5,4.04,1.5,5.88,0,4.5-1.32,9.17-3.96,14-2.64,4.84-5.53,9.67-8.66,14.5-3.14,4.84-6.02,9.67-8.66,14.5-2.64,4.84-3.96,9.5-3.96,14,0,1.17-.43,1.75-1.27,1.75-1.52,0-3.25-.38-5.2-1.12s-3.72-1.79-5.32-3.12c-1.61-1.33-3-2.88-4.18-4.62s-1.77-3.62-1.77-5.62c0-4.66,1.3-8.88,3.91-12.62s5.51-7.33,8.71-10.75c3.2-3.41,6.1-6.75,8.71-10s3.91-6.88,3.91-10.88-1.26-7.04-3.79-9.62c-2.52-2.58-5.72-3.88-9.59-3.88-2.02,0-4.38.58-7.06,1.75-5.18,2.33-10.06,6.04-14.64,11.11-4.59,5.07-8.75,10.94-12.5,17.59s-7.04,13.85-9.88,21.59c-2.84,7.73-5.09,15.47-6.75,23.21-1.67,7.73-2.71,15.18-3.12,22.33-.42,7.16-.12,13.48.88,18.96,1,5.49,2.83,9.9,5.5,13.23,2.66,3.33,6.16,4.99,10.5,4.99,3.66,0,7-1.16,10-3.5,3-2.33,5.66-5.25,8-8.75,2.33-3.5,4.33-7.33,6-11.5,1.66-4.16,3-8.16,4-12-5.34.67-10.46,1.71-15.38,3.12-4.92,1.42-9.79,3.21-14.62,5.38-1,.5-1.75.17-2.25-1-.84-2.16-1.04-4.71-.62-7.62.41-2.91,1.29-5.38,2.62-7.38.83-1.16,2-1.83,3.5-2,8-1.66,15.59-2.71,22.78-3.12,7.19-.41,14.73.04,22.64,1.38,1.34.34,2.35,1.5,3.02,3.5s1.01,3.75,1.01,5.25c0,2-.76,2.84-2.28,2.5-.85-.16-1.69-.29-2.54-.38-.84-.08-1.69-.12-2.53-.12.34.34.68.62,1.01.88s.68.54,1.02.88c1.18,1.17,1.73,2.17,1.64,3-.09.84-.38,2.17-.89,4-1.69,6.17-3.42,12.5-5.19,19s-3.34,12.71-4.69,18.62-2.49,11.21-3.42,15.88c-.93,4.66-1.48,8.25-1.64,10.75,0,1.83-1.07,2.75-3.2,2.75-1.48,0-3.08-.38-4.81-1.12s-3.33-1.71-4.81-2.87c-1.48-1.17-2.67-2.46-3.57-3.88-.91-1.42-1.36-2.79-1.36-4.12s.2-3.09.61-5.25c.41-2.17.86-4.46,1.36-6.87.49-2.41,1.03-4.87,1.61-7.37.57-2.5,1.11-4.91,1.6-7.25-1,1.53-2.29,3.02-3.88,4.46-1.59,1.45-3.38,2.76-5.38,3.95-2,1.19-4.09,2.12-6.25,2.8-2.17.68-4.25,1.02-6.25,1.02-9.17,0-16.62-2.34-22.38-7.01-5.75-4.67-10.04-10.81-12.88-18.4-2.84-7.59-4.25-16.23-4.25-25.91s1.12-19.57,3.38-29.67c2.25-10.1,5.62-19.99,10.12-29.67s9.88-18.32,16.12-25.91,13.25-13.73,21-18.41c7.75-4.67,16.11-7.01,25.08-7.01Z"/><path class="cls-1" d="m802.31,750.13c2.83-1.33,5.88-1.66,9.12-1,3.25.67,6.12,1.92,8.62,3.75,3.83,0,7.5.62,11,1.88s6.54,2.88,9.12,4.88c2.58,2,4.62,4.34,6.12,7,1.5,2.67,2.25,5.42,2.25,8.25,0,5.67-.62,11.5-1.88,17.5s-3.04,11.84-5.38,17.5c5.5-4.83,10.46-10.29,14.88-16.38,4.41-6.08,8.04-12.62,10.88-19.62.5-1,1.16-1.62,2-1.88.83-.25,1.66-.21,2.5.12.83.34,1.46.92,1.88,1.75.41.84.46,1.75.12,2.75-8.17,19.84-21.17,35.34-39,46.5-4.67,7.67-10.17,13.96-16.5,18.88-6.34,4.92-13.25,7.38-20.75,7.38-4.5,0-8.54-1-12.12-3-3.59-2-6.59-4.54-9-7.62-2.42-3.08-4.29-6.41-5.62-10-1.34-3.58-2-7.04-2-10.38,0-6.16.79-12.66,2.38-19.5,1.58-6.83,3.79-13.41,6.62-19.75,2.83-6.33,6.33-12.04,10.5-17.12,4.16-5.08,8.91-9.04,14.25-11.88Zm-10,81.75c1-.33,1.83-.5,2.5-.5,2.83-.33,5.25-.75,7.25-1.25s4.41-1.16,7.25-2c2.16-3.16,4.25-7,6.25-11.5s3.71-9.16,5.12-14c1.41-4.83,2.54-9.66,3.38-14.5.83-4.83,1.25-9.25,1.25-13.25s-.5-7.38-1.5-9.62-2.38-3.62-4.12-4.12-3.71-.25-5.88.75c-2.17,1-4.34,2.75-6.5,5.25-3.5,4-6.59,8.96-9.25,14.88-2.67,5.92-4.67,12-6,18.25-1.34,6.25-2,12.25-2,18s.75,10.29,2.25,13.62Z"/><path class="cls-1" d="m849.31,824.88c.66-8,1.79-16.96,3.38-26.88,1.58-9.91,3.38-19.91,5.38-30,2-10.08,4.21-19.91,6.62-29.5,2.41-9.58,4.83-18.12,7.25-25.62,2.41-7.5,4.71-13.5,6.88-18,2.16-4.5,4.08-6.75,5.75-6.75,1.16,0,2.96.38,5.38,1.12,2.41.75,4.83,1.62,7.25,2.62,2.41,1,4.54,2.09,6.38,3.25,1.83,1.17,2.75,2.25,2.75,3.25,0,.5-.17.92-.5,1.25-.67.84-1.25,1.54-1.75,2.12-.5.59-1,1.29-1.5,2.12-3.17,5.67-6.46,13.84-9.88,24.5-3.42,10.67-6.67,22.21-9.75,34.62-3.09,12.42-5.84,24.75-8.25,37-2.42,12.25-4.21,22.79-5.38,31.62-.34,2.84-.17,4.46.5,4.88.66.42,1.91-.29,3.75-2.12,3.66-3.83,7.08-8.38,10.25-13.62,3.16-5.25,6.08-10.62,8.75-16.12,2.66-5.5,5.08-10.91,7.25-16.25,2.16-5.33,4-10.08,5.5-14.25.5-1,1.16-1.66,2-2,.83-.33,1.66-.33,2.5,0,.83.34,1.5.92,2,1.75.5.84.5,1.75,0,2.75-1.17,2.84-2.67,6.59-4.5,11.25-1.84,4.67-4,9.71-6.5,15.12-2.5,5.42-5.25,10.88-8.25,16.38s-6.17,10.46-9.5,14.88c-3.34,4.42-6.75,8.04-10.25,10.88-3.5,2.84-7.09,4.25-10.75,4.25s-6.17-.83-8-2.5c-1.84-1.66-3.12-3.71-3.88-6.12-.75-2.41-1.12-5.04-1.12-7.88s.08-5.5.25-8Z"/><path class="cls-1" d="m919.05,799.38c3.16-.5,6.54-1.58,10.12-3.25,3.58-1.66,6.96-3.66,10.12-6,3.16-2.33,6-4.91,8.5-7.75,2.5-2.83,4.33-5.66,5.5-8.5.5-1,1.21-1.62,2.12-1.88.91-.25,1.75-.21,2.5.12.75.34,1.38.92,1.88,1.75.5.84.5,1.75,0,2.75-1.5,3.5-3.79,6.92-6.88,10.25-3.09,3.34-6.5,6.38-10.25,9.12s-7.71,5.04-11.88,6.88c-4.17,1.84-8.09,3-11.75,3.5,1.16,6.34,2.04,12.96,2.62,19.88.58,6.92.83,13.84.75,20.75-.09,6.91-.59,13.71-1.5,20.38-.92,6.66-2.12,12.83-3.62,18.5-.84,3.33-2,6.79-3.5,10.38-1.5,3.58-3.34,6.46-5.5,8.62-2,2.16-3.96,3.41-5.88,3.75-1.92.33-3.96.5-6.12.5-1.5,0-3.21-.21-5.12-.62-1.92-.42-3.71-1.04-5.38-1.88-1.66-.84-3.08-1.84-4.25-3-1.16-1.17-1.75-2.42-1.75-3.75,0-6.17.5-13.25,1.5-21.25,1.17-11.67,2.75-23.84,4.75-36.5s4.33-25.33,7-38c2.66-12.66,5.66-25.08,9-37.25,3.33-12.16,6.91-23.66,10.75-34.5,2-5.5,3.88-9.83,5.62-13,1.75-3.16,3.29-4.75,4.62-4.75,1.16,0,2.96.38,5.38,1.12,2.41.75,4.83,1.62,7.25,2.62,2.41,1,4.54,2.09,6.38,3.25,1.83,1.17,2.75,2.25,2.75,3.25,0,.5-.17.92-.5,1.25-.67.84-1.25,1.54-1.75,2.12-.5.59-1,1.29-1.5,2.12-1.84,3.17-3.67,7.21-5.5,12.12-1.84,4.92-3.71,10.42-5.62,16.5-1.92,6.09-3.79,12.59-5.62,19.5-1.84,6.92-3.59,13.88-5.25,20.88Zm-14.5,99c.5,0,1-.46,1.5-1.38.5-.92.96-1.96,1.38-3.12.41-1.17.83-2.34,1.25-3.5.41-1.17.71-2,.88-2.5,3.33-10.5,5.29-21.54,5.88-33.12.58-11.58.21-22.79-1.12-33.62-2.17,10.84-4.12,21.71-5.88,32.62s-3.21,21.88-4.38,32.88c-.84,7.83-.67,11.75.5,11.75Z"/><path class="cls-1" d="m966.3,849.38c-7.5,0-13.62-1.46-18.38-4.38-4.75-2.91-8.29-6.71-10.62-11.38-2.34-4.66-3.67-10.04-4-16.12-.34-6.08.21-12.25,1.62-18.5,1.41-6.25,3.46-12.41,6.12-18.5,2.66-6.08,5.83-11.46,9.5-16.12,3.66-4.66,7.62-8.46,11.88-11.38,4.25-2.91,8.62-4.38,13.12-4.38,2.33,0,5.04.71,8.12,2.12,3.08,1.42,5.96,3.29,8.62,5.62,2.66,2.34,4.91,4.92,6.75,7.75,1.83,2.84,2.75,5.59,2.75,8.25,0,5.84-1.5,11.25-4.5,16.25s-6.84,9.38-11.5,13.12c-4.67,3.75-9.71,6.67-15.12,8.75-5.42,2.09-10.54,3.12-15.38,3.12-.34,6.67.62,12.34,2.88,17,2.25,4.67,6.29,7,12.12,7,5,0,9.88-2.25,14.62-6.75s9.16-10.04,13.25-16.62c4.08-6.58,7.75-13.54,11-20.88,3.25-7.33,5.96-13.83,8.12-19.5.33-1,.96-1.62,1.88-1.88.91-.25,1.75-.21,2.5.12.75.34,1.38.92,1.88,1.75.5.84.5,1.75,0,2.75-2.34,6.17-5.29,13.42-8.88,21.75-3.59,8.34-7.79,16.29-12.62,23.88-4.84,7.59-10.25,14-16.25,19.25s-12.5,7.88-19.5,7.88Zm9.75-85.75c-2.5,1.84-4.88,4.38-7.12,7.62s-4.29,6.88-6.12,10.88c-1.84,4-3.38,8.25-4.62,12.75s-2.12,8.84-2.62,13c3.33,0,6.71-1.16,10.12-3.5,3.41-2.33,6.5-5.38,9.25-9.12s4.96-8.04,6.62-12.88c1.66-4.83,2.5-9.75,2.5-14.75,0-2.66-.88-4.38-2.62-5.12s-3.54-.38-5.38,1.12Z"/><path class="cls-1" d="m508.57,895.04c1.31-2.45,3.12-4.36,5.42-5.71,2.3-1.35,4.88-2.03,7.74-2.03,2.47,0,4.78.57,6.9,1.71,2.13,1.14,3.75,2.64,4.87,4.5v-16.82h5.34v42.92h-5.34v-5.97c-1.04,1.89-2.59,3.45-4.64,4.67-2.05,1.22-4.45,1.83-7.19,1.83s-5.38-.7-7.68-2.09c-2.3-1.39-4.11-3.34-5.42-5.86s-1.97-5.37-1.97-8.58.66-6.1,1.97-8.56Zm23.49,2.35c-.97-1.78-2.27-3.14-3.92-4.09s-3.45-1.42-5.42-1.42-3.77.46-5.39,1.39-2.92,2.28-3.89,4.06c-.97,1.78-1.45,3.87-1.45,6.26s.48,4.55,1.45,6.35,2.26,3.17,3.89,4.12c1.62.95,3.42,1.42,5.39,1.42s3.78-.47,5.42-1.42c1.64-.95,2.95-2.32,3.92-4.12.97-1.8,1.45-3.89,1.45-6.29s-.48-4.48-1.45-6.26Z"/><path class="cls-1" d="m576.02,905.69h-25.4c.19,3.13,1.27,5.58,3.22,7.34,1.95,1.76,4.32,2.64,7.1,2.64,2.28,0,4.19-.53,5.71-1.59,1.53-1.06,2.6-2.48,3.22-4.26h5.68c-.85,3.05-2.55,5.54-5.1,7.45-2.55,1.91-5.72,2.87-9.51,2.87-3.02,0-5.71-.68-8.09-2.03s-4.24-3.28-5.6-5.77c-1.35-2.49-2.03-5.38-2.03-8.67s.66-6.17,1.97-8.64,3.16-4.38,5.54-5.71,5.11-2,8.21-2,5.68.66,8,1.97c2.32,1.32,4.11,3.12,5.37,5.42,1.26,2.3,1.88,4.9,1.88,7.8,0,1.01-.06,2.07-.17,3.19Zm-6.61-9.48c-.89-1.45-2.1-2.55-3.62-3.31-1.53-.75-3.22-1.13-5.08-1.13-2.67,0-4.94.85-6.82,2.55-1.88,1.7-2.95,4.06-3.22,7.08h20.07c0-2.01-.45-3.74-1.33-5.19Z"/><path class="cls-1" d="m352.05,999.42c-2.47-1.11-4.41-2.65-5.81-4.62-1.41-1.97-2.13-4.25-2.18-6.83h6.6c.23,2.22,1.14,4.09,2.75,5.61,1.61,1.52,3.95,2.28,7.04,2.28s5.27-.74,6.97-2.21c1.7-1.47,2.55-3.37,2.55-5.68,0-1.81-.5-3.29-1.5-4.42-1-1.13-2.24-1.99-3.74-2.58-1.5-.59-3.51-1.22-6.05-1.9-3.13-.82-5.63-1.63-7.51-2.45-1.88-.82-3.49-2.1-4.83-3.84-1.34-1.75-2.01-4.09-2.01-7.04,0-2.58.66-4.87,1.97-6.87,1.31-1.99,3.16-3.54,5.54-4.62s5.11-1.63,8.19-1.63c4.44,0,8.08,1.11,10.91,3.33,2.83,2.22,4.43,5.17,4.79,8.84h-6.8c-.23-1.81-1.18-3.41-2.86-4.79-1.68-1.38-3.9-2.07-6.66-2.07-2.58,0-4.69.67-6.32,2.01-1.63,1.34-2.45,3.21-2.45,5.61,0,1.72.49,3.13,1.46,4.22.97,1.09,2.18,1.92,3.6,2.48,1.43.57,3.43,1.21,6.02,1.94,3.13.86,5.64,1.71,7.55,2.55,1.9.84,3.54,2.13,4.9,3.88,1.36,1.75,2.04,4.11,2.04,7.11,0,2.31-.61,4.49-1.84,6.53-1.22,2.04-3.04,3.7-5.44,4.96-2.4,1.27-5.24,1.9-8.5,1.9s-5.93-.55-8.4-1.67Z"/><path class="cls-1" d="m382.55,971.81c1.54-2.88,3.66-5.11,6.36-6.7,2.7-1.59,5.7-2.38,9.01-2.38s6.1.7,8.5,2.11c2.4,1.41,4.19,3.17,5.37,5.3v-6.8h6.26v37.26h-6.26v-6.94c-1.22,2.18-3.05,3.98-5.47,5.41-2.43,1.43-5.25,2.14-8.47,2.14s-6.3-.82-8.98-2.45-4.78-3.92-6.32-6.87c-1.54-2.95-2.31-6.3-2.31-10.06s.77-7.15,2.31-10.03Zm27.54,2.75c-1.13-2.08-2.66-3.68-4.59-4.79-1.93-1.11-4.05-1.67-6.36-1.67s-4.42.54-6.32,1.63-3.42,2.68-4.56,4.76c-1.13,2.09-1.7,4.53-1.7,7.34s.57,5.34,1.7,7.45c1.13,2.11,2.65,3.72,4.56,4.83,1.9,1.11,4.01,1.67,6.32,1.67s4.43-.55,6.36-1.67c1.93-1.11,3.46-2.72,4.59-4.83,1.13-2.11,1.7-4.57,1.7-7.38s-.57-5.26-1.7-7.34Z"/><path class="cls-1" d="m425.93,956.07c-.82-.82-1.22-1.81-1.22-2.99s.41-2.18,1.22-2.99c.82-.82,1.81-1.22,2.99-1.22s2.1.41,2.89,1.22c.79.82,1.19,1.81,1.19,2.99s-.4,2.18-1.19,2.99-1.76,1.22-2.89,1.22-2.18-.41-2.99-1.22Zm5.98,7.28v37.26h-6.19v-37.26h6.19Z"/><path class="cls-1" d="m468.84,966.78c2.81,2.74,4.22,6.7,4.22,11.87v21.96h-6.12v-21.08c0-3.72-.93-6.56-2.79-8.53-1.86-1.97-4.4-2.96-7.62-2.96s-5.86,1.02-7.79,3.06c-1.93,2.04-2.89,5.01-2.89,8.91v20.6h-6.19v-37.26h6.19v5.3c1.22-1.9,2.89-3.38,5-4.42,2.11-1.04,4.43-1.56,6.97-1.56,4.53,0,8.2,1.37,11.02,4.11Z"/><path class="cls-1" d="m487.95,968.44v21.96c0,1.81.38,3.09,1.16,3.84.77.75,2.11,1.12,4.01,1.12h4.56v5.24h-5.58c-3.45,0-6.03-.79-7.75-2.38-1.72-1.59-2.58-4.19-2.58-7.82v-21.96h-4.83v-5.1h4.83v-9.38h6.19v9.38h9.72v5.1h-9.72Z"/><path class="cls-1" d="m528.2,973.07v5.24h-27.13v-5.24h27.13Z"/><path class="cls-1" d="m566.21,953.21v5.03h-12.92v42.36h-6.19v-42.36h-12.99v-5.03h32.1Z"/><path class="cls-1" d="m581.89,964.43c2.02-1.18,4.48-1.77,7.38-1.77v6.39h-1.63c-6.94,0-10.4,3.76-10.4,11.29v20.26h-6.19v-37.26h6.19v6.05c1.09-2.13,2.64-3.79,4.66-4.96Z"/><path class="cls-1" d="m600.38,998.84c-2.83-1.59-5.06-3.84-6.66-6.77-1.61-2.92-2.41-6.31-2.41-10.17s.83-7.17,2.48-10.1,3.91-5.17,6.77-6.73c2.86-1.56,6.05-2.35,9.59-2.35s6.73.78,9.59,2.35c2.86,1.56,5.11,3.8,6.77,6.7,1.66,2.9,2.48,6.28,2.48,10.13s-.85,7.24-2.55,10.17-4,5.18-6.9,6.77c-2.9,1.59-6.12,2.38-9.66,2.38s-6.65-.79-9.49-2.38Zm15.74-4.62c1.95-1.04,3.52-2.61,4.73-4.69,1.2-2.08,1.8-4.62,1.8-7.62s-.59-5.53-1.77-7.62c-1.18-2.08-2.72-3.64-4.62-4.66-1.9-1.02-3.97-1.53-6.19-1.53s-4.34.51-6.22,1.53c-1.88,1.02-3.39,2.57-4.52,4.66-1.13,2.09-1.7,4.62-1.7,7.62s.55,5.6,1.67,7.68c1.11,2.08,2.59,3.64,4.45,4.66,1.86,1.02,3.9,1.53,6.12,1.53s4.31-.52,6.26-1.56Z"/><path class="cls-1" d="m646.01,964.87c2.42-1.43,5.25-2.14,8.47-2.14s6.31.79,9.01,2.38c2.7,1.59,4.82,3.82,6.36,6.7s2.31,6.22,2.31,10.03-.77,7.12-2.31,10.06c-1.54,2.95-3.66,5.24-6.36,6.87s-5.7,2.45-9.01,2.45-5.97-.71-8.4-2.14c-2.42-1.43-4.27-3.21-5.54-5.34v24.55h-6.19v-54.94h6.19v6.87c1.22-2.13,3.05-3.91,5.47-5.34Zm18.12,9.62c-1.13-2.08-2.66-3.67-4.59-4.76-1.93-1.09-4.05-1.63-6.36-1.63s-4.36.56-6.29,1.67c-1.93,1.11-3.47,2.72-4.62,4.83-1.16,2.11-1.73,4.54-1.73,7.31s.58,5.27,1.73,7.38c1.16,2.11,2.7,3.72,4.62,4.83,1.93,1.11,4.02,1.67,6.29,1.67s4.43-.55,6.36-1.67c1.93-1.11,3.46-2.72,4.59-4.83,1.13-2.11,1.7-4.59,1.7-7.45s-.57-5.26-1.7-7.34Z"/><path class="cls-1" d="m711.32,984.29h-29.78c.23,3.67,1.48,6.54,3.77,8.6,2.29,2.06,5.07,3.09,8.33,3.09,2.67,0,4.91-.62,6.7-1.87,1.79-1.25,3.05-2.91,3.77-5h6.66c-1,3.58-2.99,6.49-5.98,8.74s-6.71,3.37-11.15,3.37c-3.54,0-6.7-.79-9.49-2.38s-4.98-3.84-6.56-6.77-2.38-6.31-2.38-10.17.77-7.23,2.31-10.13c1.54-2.9,3.71-5.13,6.49-6.7,2.79-1.56,5.99-2.35,9.62-2.35s6.66.77,9.38,2.31c2.72,1.54,4.82,3.66,6.29,6.36,1.47,2.7,2.21,5.75,2.21,9.15,0,1.18-.07,2.42-.2,3.74Zm-7.75-11.12c-1.04-1.7-2.46-2.99-4.25-3.88-1.79-.88-3.77-1.33-5.95-1.33-3.13,0-5.79,1-7.99,2.99-2.2,2-3.46,4.76-3.77,8.3h23.53c0-2.36-.52-4.39-1.56-6.09Z"/><path class="cls-1" d="m721.52,995.51h18.29v5.1h-25.36v-5.1l18.09-27.13h-17.95v-5.03h25.09v5.03l-18.16,27.13Z"/></g><g id="sky"><path class="cls-10" d="m902.93,632.59c27.27-54.9,42.66-117.08,42.66-182.94,0-222.58-175.65-403.02-392.33-403.02S160.92,227.06,160.92,449.64c0,65.6,15.26,127.54,42.33,182.28l175-10.43,184-1,196,7,144.68,5.09Z"/></g><g id="sun"><circle class="cls-2" cx="721.25" cy="526.5" r="85"/><circle class="cls-2" cx="720.75" cy="527" r="52.5"/><circle class="cls-1" cx="721.25" cy="526.5" r="33"/></g><g id="water"><path class="cls-8" d="m368.25,534.5l568-2s-28,105-36,107c0,0-389.18-31.28-475.09-22.64,0,0-21.57,4.42-28.24-4.47,0,0-68.98-36.78-54.83-53.33l26.16-24.56Z"/></g><g id="sun_reflect1"><circle class="cls-2" cx="721.25" cy="526.5" r="33"/><path class="cls-2" d="m668.69,533.44c3.54,25.55,26.03,14.06,52.56,14.06s48.11,11.31,51.49-14.42"/></g><g id="sun_reflect2"><path class="cls-4" d="m687.29,534.93c2.65-.74,5.45-.57,8.19-.39,4.94.32,9.83.64,14.77.95,1.48.1,2.99.19,4.47.29,4.66.3,9.32.6,13.98.35,2.85-.15,5.69-.51,8.55-.67,5.89-.32,11.81.22,17.69-.18-4.11.11-8.21.4-12.31.68-13.07.92-26.15,1.83-39.22,2.75-4.31.3-8.63.6-12.94.91l-6.52.46c-.64.05-2.3.49-2.47-.21-.13-.53.85-1.67,1.15-2.04,1.19-1.43,2.89-2.39,4.67-2.89Z"/><path class="cls-3" d="m681.25,541.5c-.07.02.07,0,0,0-.33.03-.8-.1-1.05-.38.37-.31.9-.33,1.39-.33,2.7-.03,5.39-.06,8.09-.09,6.93-.08,13.86-.15,20.79-.23,4.56-.05,9.12-.1,13.69-.15,10.13-.11,20.26-.22,30.39-.34.07.69-.39,1.31-.89,1.79-3.12,3.05-7.88,3.55-12.24,3.49-11.44-.17-22.71-3.06-34.14-3.14-2.83-.02-5.67.13-8.5.2-6.08.15-11.47-.18-17.51-.82"/><path class="cls-6" d="m742.08,545.26c-1.64,1.37-4.07,1.16-6.22,1.27-3.4.18-6.69,1.36-10.09,1.59-1.77.12-3.55-.01-5.33.07-2.35.11-4.67.6-7.01.88-2.24.26-4.51.32-6.76.44-5.26.27-10.5.82-15.73,1.37-3.24.34-6.51.69-9.64,1.63-.46.14-1,.28-1.4.02-.4-.26-.49-.84-.32-1.29s.53-.79.9-1.1c1.62-1.37,3.49-2.43,5.49-3.12,2.74-.94,5.68-1.16,8.57-1.23,7.08-.17,14.14.51,21.22.71,6.59.19,12.81.09,19.11-1.61l3.45.25,2.16.08,1.6.03Z"/><path class="cls-7" d="m682.15,552.48c6.93,1.86,14.25,1.06,21.41,1.43,12.02.62,23.66,4.56,35.66,5.52,4.7.37,9.82.16,13.5-2.78.94-.75,1.74-2.27.81-3.03-.38-.31-.9-.33-1.39-.34-2.77-.07-5.55-.1-8.32-.14-8.14-.1-16.27-.21-24.41-.31-8.14-.1-16.27-.21-24.41-.31-2.25-.03-4.5-.06-6.75-.09-1.11-.01-2.32.11-3.41-.04-.98-.14-1.74-.43-2.7.09Z"/><path class="cls-5" d="m713.6,561.35c-3.1.11-6.19.22-9.29.33-6.1.22-12.23.44-18.21,1.68-1.66.35-3.32.78-4.79,1.62s-2.73,2.16-3.2,3.79c-.04.15-.08.32-.02.46.13.3.56.29.89.22,5.6-1.17,11.2-2.31,16.84-3.29,10.57-1.83,21.24-3.06,31.79-5.04,2.39-.45,4.8-.94,7.02-1.94-.68-.22-1.38-.4-2.08-.54-.49-.1-.99-.17-1.49-.22-.77-.08-1.06.12-1.65.5s-1.19.6-1.9.8c-1.5.43-3.04.74-4.59.96-3.09.45-6.21.56-9.33.67Z"/></g><g id="Tree"><path d="m633.13,277.55c.33-.87.62-1.76,1.01-2.6.44-.92,1.02-1.67,2.07-.6,1,.46,1.99.92,2.99,1.39.11-1.3.23-2.6.34-3.9-.65-1.63-3.72-2.44-1.68-5.12.18-.23-1.1-2.18-2-2.5-1.24-.45-2.77-.12-4.42-.12-.1-1.11-.18-2.01-.26-2.95,1.39-.34,2.73-.68,4.41-1.1-.85-1.65-1.45-2.82-2.02-3.93-1.97-.66-3.96-1.32-5.96-1.99-.22-.3-.45-.59-.67-.89-1.13,1.24-2.26,2.49-3.65,4.02-1.48-.45-3.5-1.05-5.52-1.65-.53-.66-1.05-1.32-1.58-1.98.54-.03,1.07-.07,1.61-.1.14-.29.29-.58.44-.87-.8-.93-1.6-1.87-2.39-2.81-.72-.23-1.89-.86-2.07-.64-1.66,1.97-3.62.52-5.42.64-.36.25-.72.5-1.07.75l-.08.1c.21,1.43-.32,2.07-1.8,1.73-1.66,1.22-3.47,2.28-4.91,3.71-1.17,1.16-1.9,2.78-3.47,5.18-.75-2.53-1.13-3.82-1.58-5.3-.21-.1-.64-.26-1.04-.47-2.13-1.08-4.85-1.18-5.76-4.21-.23-.76-2.12-1.02-3.24-1.52-2.56,1.15-5.12,1.61-7.67-.04.86-3.44-2.2-6.32-1.45-9.87.12-.58-2.11-1.94-3.44-2.46-1.41-.56-3.05-.5-4.58-.78-1.79-.34-3.34-.39-4.4,1.59-.33.63-1.54.78-2.44,1.18-.72-1.25-1.31-2.29-1.91-3.33l-.42.09-.42-.05c-2.69.73-3.95-1.38-5.24-2.94-.96-1.16-.12-2.25,1.36-2.59.32.01.65.01.97.02.26-.83.51-1.66.77-2.49-.8-1.61-1.61-3.21-2.56-5.12.08-.08.6-.63,1.15-1.22-.36-1.93-1.87-2.08-3.22-1.82-1.27.24-2.43,1.03-4.68,2.05.73-2.02,1.05-2.92,1.37-3.83-4.02-.81-5.39-.02-10.49,6.03-2.41-1.97-4.4-5.01-8.94-2.84.39-3.69.71-6.68,1.11-10.4-1.15-.33-2.82-.8-4.85-1.37.94-1.64,1.37-3.65,3.89-1.7.45.34,1.28.76,1.62.57,2.59-1.39,3.7.51,4.9,2.47,2.43-3.08,4.02-.32,6.13.65,1.35-2.81,4.85-4.57,2.04-8.68-1.28-1.88,1.29-2.16,3.43-2.56-.76-2.03-1.52-3.94-2.18-5.89-.14-.4.23-.95.2-1.41-.07-.99.07-2.51-.47-2.84-.67-.41-1.97.03-2.95.3-1.23.33-2.4.87-4.18,1.54.47-1.87.73-2.87,1-3.95-5.15-.48-7.27,3.34-9.97,6.52-2.59-1.32-3.95-5.63-8.24-3.08-.29-2.53-.55-4.65-.84-7.09-4.78-.09-9.65,2.48-13.98-1.51-1.13,1.38-2.11,2.58-3.48,4.24-1.09-2.28-2.14-4.45-3.33-6.95,1.29-.58,2.2-.99,3.59-1.62-.57-3.08-1.16-6.29-1.86-10.06-1.48.26-2.94.51-4.4.77q-1.27.23-1.84-1.76c.09-.29.13-.59.14-.89-3.26-.27-6.04.35-8.38,3.04-2.02,2.32-3.21,2.15-5.64.38-.7-.51-1.44-.97-2.15-1.46-1.47,1.13-2.68,1.59-2.77-1.02-.08-.78-.14-1.57-.25-2.36-.42-3.01-2-3.95-4.89-2.92-3.31,1.18-2.79.57-5.24-1.84-1.93-1.9-.39-3.7-1.36-5.24-2.05.24-4.1.49-6.31.75v-2.46c-5.13-1.22-7.14,2.95-9.93,5.7-2.27-2.3-4.39-4.81-8.28-3.35-.26-2.81-.48-5.25-.76-8.38,1.59,1.36,2.73,2.34,4.2,3.59.94-1.68,1.96-3.24,2.7-4.93.35-.79.56-2.2.12-2.68-2.93-3.22.73-2.89,2.13-4-.09-1.74-.18-3.6-.27-5.48-.82-.28-1.53-.52-2.26-.77.56-.92,1.08-1.78,1.53-2.52-2.28-3.98-5,1.46-7.28-.82.17-.67.35-1.38.53-2.13-4.9-1.33-7.05,2.57-9.85,5.23-2.79-1.22-4.74-4.65-8.69-2.49-.31-2.39-.55-4.35-.87-6.83-2.52.34-4.89,1.18-7.07.83-2.08-.34-5.15,1.37-6.17-2.71-1.48,1.58-2.63,2.8-3.83,4.08-.76-.27-1.73-.92-2.6-.82-.98.12-1.89.92-2.95,1.49-.54-.95-.99-1.74-1.55-2.7-3.45,2.76-7.21,4.66-12.46,4.88,2.31-2.84,1.03-4.64-.75-6.33-3.1-.62-2.85,2.09-3.46,3.56-4.5-.15-8.19-3.15-12.73-2.15.28-2.13.54-3.85.73-5.59.18-1.6.28-3.22.43-5.05,2.36.81,2.86,4.36,5.8,2.07-.27-1.06-.5-2.26-.86-3.42-.6-1.97-.97-4.46-4.01-2.25-.16.12-.89-.54-1.36-.84.57-.61,1.14-1.22,1.8-1.92-2.32-1.17-2.87-2.95-1.08-5.21-.62-.46-1.28-.89-1.86-1.4-1.97-1.76-3.87-1.81-5.79.1-.51.5-1.2.83-2.16,1.48-.53-1.85-.94-3.29-1.33-4.65,1.11-1.18,2.34-2.13,3.1-3.37.86-1.43.07-2.35-1.53-2.57-.6.14-1.2.27-1.78.4-.07-1.5-.14-2.93-.23-4.92-1.73,1.37-2.95,2.33-4.27,3.37-.75-.54-1.46-1.06-2.22-1.61-3.24,2.02-.86,6.09-3.17,8.37q-3.26-.25-5.96,2.19c-1.71-.87-3.49-1.78-5-2.55-.65-2.01,3.73-2.15,1.06-4.39-1.06-.55-2.12-1.1-3.19-1.65-.55-.24-1.09-.48-1.9-.83-.53,1.73-.98,3.23-1.52,5.01-1.69-1.9-3.2-1.2-4.75.33-1.59,1.58-1.2,3.05.06,4.48-1.11,1.54-4.35,1.76-3.18,4.19,1.23,2.53-2.2,2.7-1.71,4.84.34,1.49-.94,3.38-.52,4.81.8,2.76-.51,3.59-2.64,4.57-1.05-1.99-1.91-3.64-2.74-5.23-4.15.26-8.6,2.18-11.01-3.35-4.94.52-7.82,4.39-11.75,6.76-3.31-3.72-2.52-9.97-7.5-12.2.17-1.47.28-2.52.39-3.5-1.6-.92-2.97-1.7-4.6-2.63-2.34,1.56-4.52,3.6-7.82,3.53-1.51-.04-2.65,1.64-2.46,3.53.09.94.31,1.88.34,2.82.07,2.36-1.18,3.03-2.95,2.68-1.12-1.84-2.04-3.36-3.61-5.96-.98,1.59-1.31,2.68-2.02,3.09-.55.32-1.59-.23-2.47-.4-.78,1.61-1.53,3.16-2.39,4.94-1.84-3.52-3.79-1.71-6.58.82-1.48-2.37-2.81-4.5-4.14-6.62-.42.16-.84.33-1.26.49-.49,1.71-.48,3.88-1.56,5.04-3.43,3.73-2.32,7.11.21,10.56-2.35,1.1-2.01.64-3.84-.73-1.07-.81-1.78-2.66-4.1-2.34-2.21.3-2.8,3.75-5.51,2.4-.06,0-.45.47-.49.73-.09.61-.12,1.24-.04,1.85.07.52.33,1.01.89,2.62-3.58-1.47-6.19-2.44-8.69-3.64-.53-.26-.76-1.33-.92-2.07-.22-1.03-.24-2.11-.4-3.68-2.56.41-4.84,1.13-7.08,1.04-2.33-.11-4.62-1-7.35-1.64-.75.88-1.75,2.06-2.91,3.43-1.71-3.43-3.45.07-5.46.02-.45-.84-.93-1.74-1.32-2.46-4.08,2.2-7.35,5.67-12.87,5.21.88-1.47,1.5-2.49,2.12-3.52-.43-.46-.77-.79-1.07-1.15-.77-.92-1.09-2.34-2.87-1.91-1.73.42-1.48,1.66-1.69,2.92-.11.71-.91,1.32-1.56,2.18-.75-4.39-3.4-1.56-5.17-1.83-2.38-3.32-2.95-3.3-6.75.37.81.6,1.64,1.21,2.69,1.97-1.33,1.46-2.16,2.36-3,3.27.2.24.41.48.62.71h2.48c.44,2.88.21,5.59-.89,8.22-.31,2.64-2.53,2.99-5.33,3.39,1.4.8,2.02,1.16,2.65,1.52.39.65.79,1.3,1.19,1.94.05.59.11,1.17.16,1.76-.14.36-.29.73-.43,1.09-.07.27-.2.5-.4.7-1.6,1.67-3.38,3.08-2.78,6.01.26,1.26-.99,2.83-1.69,4.59-1.68-.95-2.98-1.69-4.34-2.45.22-1.46.42-2.83.63-4.2-.15-.27-.23-.57-.22-.88-.24-.36-.49-.72-.73-1.07-1.27-.85-2.53-1.69-4.02-2.69-.5,1.31-.86,2.28-1.26,3.33-.82-.61-1.57-1.17-2.6-1.94-.15,2.02-.26,3.51-.39,5.19-1.11-.21-1.94-.37-2.9-.55-.2,1.47.42,2.73-.9,4.23-.95,1.08-2.48,4.18.43,5.95.34,0,.69,0,1.03.01l.07-.04c.34-.54.68-1.53,1.02-1.53,1.08-.01,2.55-.4,2.8,1.39v.02c1.71,2.08,2.08-1.91,3.83-.6.2,2.64-2.58,2.32-3.84,3.47-1.61.91-3.14,2.09-4.87,2.66-4.44,1.48-8.98,2.64-13.5-.53-1.08,1.15-2.13,2.28-3.19,3.41q-2.35-1.09-5.52.39c-.45-.89-.89-1.77-1.37-2.72-4.19,3.78-11.62,6.57-12.34,4.58.49-.84,1.03-1.77,1.86-3.19-1.48-.86-2.79-2.17-4.24-2.35-2.49-.3-.8,2.6-2.47,3.78-1.61-3.19-3.9-.54-5.88-.42-2.43-3.7-3.16-3.67-6.59.02.57,1.03,1.12,2.05,1.68,3.06,0,.67.01,1.34.01,2,.29.11.8.16.84.32.85,3.77,1.19,7.47-1.82,10.58-1.24.41-2.48.83-4.45,1.49,3.32,1.09,4.61,2.89,4.14,5.58-.43,2.47-2.44,2.7-4.55,2.56,1.15,2.62,0,4.31-1.77,5.47-2.09.08-4.16.29-6.1.91-2.6.84-4.99.31-8.12-.27,2.26-2.1,4.03-3.75,5.69-5.3-1.71-1.4-3.84-2.29-4.36-3.75-1.2-3.4-3.24-3.87-6.26-3.12-.79.19-1.68-.05-2.85-.11.84,3.03,1.58,5.73,2.33,8.43-.33.16-.66.32-.99.48-.32-.63-.65-1.26-1.02-2-.97,1.14-1.65,1.93-2.7,3.16-.86-2.77-1.58-5.07-2.17-6.96-1.6.35-2.96,1.07-3.48.68-1.49-1.12-2.27-1.13-3.45.42-.55.74-1.97.91-3.04,1.13-1.47.3-1.49.22-2.64-2.47.48.12.93.24,1.97.5-1.28-2.03-1.97-4.54-3.45-5.15-2.21-.91-5.02-.13-7.27.89-1.68.76-3.6,1.89-3.52,4.29,2.17,1.2,4.22,2.33,6.33,3.5-1.17,1.5-2.77,4.13-3.18,3.96-2.67-1.14-2.5,1.38-3.66,3.06-1.38-1.81-2.48-3.16-3.48-4.59-.86-1.23-1.89-2.68-3.38-1.61-1.66,1.2-2.93.4-4.45.13-1.04-.2-2.17.08-3.77.18,3.56,2.56,6.45,4.64,8.47,6.08,1.45,3.35,2.52,5.92,3.69,8.45,1.55,3.34,4.36,3.59,7.74,2.94.46-2.29,1.48-4.66,1.18-6.85-.19-1.41-2.32-2.55-3.74-3.97,2.22-1.9,4.57-1.75,7.35-1.16-.64,3.72,2.11,7.4-.86,10.8,2,2.86,1.87,5.49-.37,7.86-1.56,1.66-5.67,1.76-8.88.07v2.95c.8.1,1.58.11,2.32.31,4.16,1.14,5.68,4.49,6.74,8.19.9,3.17-1.67,4.33-3.48,5.92-.47,1.2-2.99.46-2.44,2.61-.89.5-1.77,1-2.67,1.51,1.62,3.92,5.32,5.4,9.56,7.07-1.52,1.3-2.54,2.17-3.5,3q-2.23-1.78-5.49-.92c.97,1.76,2,3.58,2.98,5.41.59,1.11,1.11,2.26,1.66,3.39,3.09-1.71,3.47-2.82,2.25-6.7.35-.25.69-.6,1.11-.76.4-.15.88-.11,1.96-.22-.29,2.78-.55,5.33-.81,7.87-.45.78-.89,1.57-1.34,2.35-.45.28-.9.57-1.35.85-.86.23-1.72.46-2.91.77,2.17,1.49,4.48,2.72,3.62,5.53-.6,1.95-2.08,2.98-5.09,1.6.88,2.44,1.08,4.6,2.25,5.88,1.9,2.07,3.48-.84,5.33-1.29,1,.94,1.9,1.8,2.81,2.66.55.11,1.09.23,1.64.34.44-1.19,2.98-1.27,1.55-3.62-.65-1.07-.17-3.03.26-4.45.21-.73,1.45-1.15,2.64-1.48-.76,2.27-1.52,4.21.24,6.26.55.64.12,2.13.14,3.23.11.24.16.49.15.76.51.44,1.03.88,1.54,1.33l.09.04c.31.29.63.57.94.85l.04.04c.37.24.75.47,1.12.7.81.67,1.61,1.32,1.83,1.51,3.99-.12,7.44-.2,10.88-.33.77-.03,1.53-.22,2.3-.34.74-.53,1.49-1.07,2.23-1.61-.08-1.81-.16-3.63-.26-5.68-1.03-.06-1.95-.12-3.48-.21,2.13-.79,3.59-1.33,5.22-1.93.78,1.43,1.49,2.72,2.2,4.02.61-.08,1.67-.36,1.76-.19,1.43,3.03,3.9,2.27,6.45,1.46.59,4.29-2.83,4.33-5.32,5.34,3.16,1.98,4.42,4.21,3.54,6.14-.85,1.89-2.24,2.82-4.38,1.52q.99,6.22,5.12,4.92c.56-1.37,1.32-1.72,2.39-.46.01,0,.24.28.24.28.62.5,1.24,1,1.86,1.49.28.24.57.47.85.71.24-.11.48-.12.73-.01,0-.01.34-.28.34-.28.18-1.09,2.39-.94,1.47-2.95-.55-1.21-.1-3.02.26-4.46.35-1.39,1.45-2.02,3.34-1.24-1.14,1.91-2.28,3.94-.15,5.93.21.19-.31,1.16-.49,1.76.45,4.15,4.92,4.77,6.39,7.84,1.17-.44,1.99-.74,2.67-1,1.56,1.56,1.98,4.09,4.25,3.55,1.04-1.37,1.68-3.12,2.77-3.48,3.45-1.12,7.13-3.2,9.19-5.94-1.23.32-2.46.64-3.81,1,.65-1.6-2.21-4.12,1.38-5.9,1.06,2.19,1.71,4.87,4.88,3.46.74-.53,1.47-1.06,1.94-1.4,1.99,2.37,3.77,4.49,5.77,6.86,1.36-1.46,2.29-3.59,4.62-2.05.19.13,1.42-.89,1.82-1.58,2.58-4.39,5.26-5.52,10.04-4.09,1.68-1.92-.29-6.01,3.42-6.45,1.95,2.17,3.73,4.14,5.88,6.53.63-1.56,1.04-2.58,1.4-3.46,1.59.19,2.94.36,4.27.52,1.88-2.48-2.31-7.43,2.14-8.12,3.49,1.49,5.89,2.51,8.51,3.62.31-1.6.59-3.02.9-4.64-1.87-.48-3.43-.88-5.98-1.54,1.73-.9,3.42-2.07,3.63-1.85,1.98,2.12,6.04-.91,7.16,2.95,2.91-2.06,4.86,1.06,7.33,1.41.13.02.15.86.22,1.31.09.46.09.97.29,1.37,1.76,3.5,1.76,3.48-1.35,6.23-.33.28-.47.77-.86,1.43,1.57,2.02,4.26,3.91,2.45,6.23,1.64,1.21,2.96,2.19,4.29,3.16-.42.47-.83.95-1.25,1.42,1.05-.22,2.1-.43,3.15-.65-.01.69-.03,1.38-.05,2.07.65,1.32,1.63,1.89,3.1,1.41,1.5-.48,3.01-.94,4.74-1.48.32.56.74,1.04.88,1.59,1.69,6.62,5.44,11.77,11.04,15.61.14.09.24.22.37.3,9.14,5.35,11.59,14.11,12.34,23.84.38,4.89,1.17,9.76,1.77,14.63.06.47.22.95.17,1.42-.59,5.67-1.21,11.34-1.82,17.01.06,13.26.11,26.51.19,39.77.01,2.34.13,4.69.2,7.03,1.13,15.36,2.37,30.72,1.39,46.46,0,0-.15,1.73,0,3.18.15,1.44,12.15,5.44,17.15,4.44,0,0,7.06.04,9.03-1.48,0,0,1.03-1.18,0-2.85-2.56-12.43-2.91-24.85-2.49-37.34-.29-14.41-.64-28.83,3.15-42.92.8-3.01,2.25-5.85,3.4-8.76.37-1.22,1.02-2.42,1.07-3.65.19-4.83,3.14-7.59,6.76-10.23,11.65-8.51,20-19.87,26.76-32.4,3.29-6.1,7.98-10.79,13.41-14.6,5-3.51,11.11-3.33,17.06-2.58,5.04.64,10.09,1.13,15.13,1.75,4.43.54,8.62-.43,12.42-2.5,9.78-5.33,20.16-8.46,31.24-9.45,3.62-.33,7.18-1.28,10.79-1.78,6.68-.93,12.83,1.52,19.11,3.15,7.04,1.84,13.79,1.64,20.02-2.77,2.45-1.74,5.12-3.16,7.72-4.74,1.24,1.16,2.36,2.89,3.89,3.39,1.21.4,2.92-.72,4.48-1.19-.17-1.12-.29-1.99-.44-2.97.49-.22.9-.57,1.3-.56,3.92.05,7.84.16,11.75.27.28.01.71.1.8.29,2.41,4.8,7.68,3.24,11.47,4.93,1.69.76,4.42-.82,7.12-1.44-2.85-2.25-5.93-2.65-9.6-3.01,4.63-1.46,7.19-1.11,11.65.71,1.39.57,3.12.27,4.68.41,2.02.16,3.92.24,5.34,2.27.59.84,2.49,1.12,3.76,1.06,3.3-.18,5.51.47,8.28,2.41.9.63,2.4.84,3.51.63,4.44-.84,8.84-1.91,14.22-3.12-1.48-1.04-2.06-1.44-3.02-2.11.31-.1.52-.21.74-.21,3.35-.01,6.7.14,10.03.47,1.57-1.19,3.13-2.38,4.78-3.62-.36-.48-.72-.95-1.08-1.42,1.44-.33,2.89-.66,4.78-1.09-.93-.86-1.45-1.34-2.24-2.07,2.61-1.02,5.05-1.98,7.5-2.94.24-.21.47-.41.7-.61.2-.24.44-.38.74-.44.37-.3.73-.61,1.1-.9-.58-.98-1.16-1.96-1.89-3.2-2.27,1.71-4.06,3.06-6.13,4.62-.51-2.38-.9-4.19-1.29-6-.13-.13-.26-.25-.4-.37-.43-.8-.87-1.61-1.2-2.23-2.39-.2-4.74-.4-7.23-.61,1.68-4.16,3.76-1.05,5.61-.9,1.77-.87,3.57-1.75,5.42-2.66,1.73.87,3.02,1.77,3.51,4.01.9,4.05,3,4.85,7.27,3.58.64-.19,1.45.23,2.19.37.87-.47,1.74-.95,2.61-1.42.17-.68.33-1.35.5-2.03.51.41,1.02.82,1.54,1.23l.04.05c.63.22,1.26.44,1.89.65l-.09-.06c-.22-1-.46-2-.67-3-.19-.93-.35-1.86-.05-2.91,1.93,2.03,4.22,3.89,2.55,7.14-.04.58-.07,1.16-.11,1.74-.51.68-1.03,1.36-1.55,2.03v.07c1.09-.04,2.19-.15,3.27-.08.27.02.5.66.75,1.01-.03.25-.07.49-.15.73.95.37,1.9.75,2.84,1.12.6,1.29,1.2,2.58,1.81,3.88,1.17.66,2.35,1.33,3.56,2.02,1.88-1.55,1.91-4.04.85-5.54-1.77-2.49-1.1-5.01-1.53-7.82,3.58.11,4.97,2.74,6.3,4.95,1.61,2.67,3.54,4.72,6.4,6.21,1.26-4.11.57-7.12-3.07-9.47-1.38-.89-2.06-2.88-3.65-5.25,4.33-.49,7.62-.87,11.53-1.32.34.58,1.12,1.88,1.99,3.34.96-.3,1.97-.61,3.28-1.01.17,1.93.07,4.2,2.67,4.18,3.81-.02,8.34,2.17,10.86-3.52-2.43-1.35-4.9-2.72-7.88-4.36-.47.3-1.6,1.02-3.02,1.93-.93-1.66-1.78-3.17-2.77-4.94,3.98-1.22,7.3-3.68,11.28-1.8-.92.45-1.89.92-2.85,1.4.34.58.68,1.16,1.02,1.74,1.49,0,3.02.23,4.45-.04,4.89-.92,5.64-.67,8.13,3.17.63.98,1.47,1.82,2.22,2.72.47-.04.93-.09,1.4-.13.23-.05.4-.19.49-.41.18-.17.36-.31.56-.45l.23-.33c.11-.6.22-1.21.33-1.79,1.55-.19,3.01-.52,4.46-.47.72.02,1.42.76,2.12,1.18-.02.47-.1.95-.05,1.41.21,2.13.96,4.39,3.21,4.42,1.11.02,2.33-2.11,3.33-3.4.73-.94,1.11-2.14,1.78-3.14,2.63-3.93,1.71-6.44-2.9-7.82-.95-.92-2.22-1.87.29-2.36ZM48.05,247.07c-.05-2.14-.11-3.87,2.81-2.99.29,1.9-.67,2.66-2.81,2.99Zm19.11-7.36c-.16,2.18-.35,4.54-.57,7.46-1.58-.64-2.93-.83-3.68-1.61-.54-.55-.68-2.5-.28-2.78,3.12-2.14.42-2.88-1.05-4.18,1.23-1.39,2.16-2.44,3.15-3.56,1.87.39,3.6.75,6.21,1.29-1.72,1.54-2.71,2.43-3.78,3.38Zm37.28-40.18c-3.02-1.39-1.99-4.38-2.6-6.6-.13-.46,1.47-1.4,2.6-2.41v9.01Zm19.78,58.51c-.67-.42-1.34-.83-2.01-1.25.27-.37.54-.73.81-1.1.59.52,1.17,1.04,1.76,1.55-.19.27-.37.54-.56.8Zm51.98-113.46c.34-1.48,1.28-2.06,3.07-1.46-.57,1.63-2.54,3.17-.2,5.1.71.59.11,2.77.11,4.29-2.36-1.74-3.63-5.15-2.98-7.93Zm-40.63,50.78l-.11-.12.12.11h-.01c1.97,1.25,1.4,2.68-.08,3.6-1.03.63-2.48.57-3.93.15,1.34-1.25,2.67-2.49,4.01-3.74Zm-9.13.62c-.01-.07,1.09-.46,1.11-.41.5.95.91,1.95,1.34,2.93-.56.17-1.13.34-1.7.51-.27-1.01-.56-2.01-.75-3.03Zm13.71,59.58c-.95,1.37-1.68,3.61-2.9,3.92-3.1.78-5.6,4.28-9.47,2.22,1.82-1.91,2.35-5.02,5.71-5.5.57-.08.94-1.46,1.37-2.18,1.32.51,2.53.98,3.74,1.45-.23-1.16-.45-2.32-.76-3.93,1.59,1.18,3.81,1.45,2.31,4.02Zm11.66-60.23s-.03,0-.04,0c-.67,1.23-1.34,2.46-1.93,3.54-2.06-.6-3.85-1.1-5.64-1.62v.03h-.05c-.56,2.1-1.11,4.18-1.68,6.27-.36-.01-.72-.01-1.09-.02-.29-2.12-.57-4.25-.9-6.64,1.57.17,2.63.28,3.67.39,0,0,0-.03,0-.04.01,0,.03.01.04.01.19-2,.22-3.95,3.16-3.99,1.94-.02,3.64-.14,4.4,2.07h.01s.01-.02.02-.03c.01.01.02.03.02.04,1.11.26,2.23.51,4.11.93-2.61,1.59-3.37.35-4.11-.93Zm4.97.5c.33-2.38,2.39-2.41,3.83-3.49,1.49.7,3,1.4,4.86,2.27-2.98,1.99-5.62,2.57-8.69,1.22Zm21.29,66.39c-1.02,1.52-2.75,2.57-4.32,3.96-2.48-.8-4.13-5.07-8.6-2.55v-5.29c2.83-1.04,5.75-1.17,8.69-.82,2.79.33,5.56.85,8.44,1.31.33,3.12-3.11,1.76-4.21,3.39Zm2.1-13.05c1.62-.07,3.1-.13,4.8-.21.62,1.62,1.16,3.05,2.05,5.36-2.96-1.54-6.18-1.01-6.85-5.15Zm3.57,15.02l-1.14-1.17c4.08-1.46.07-4.85,2.49-6.86,3.92-.25,3.23,3.37,4.7,5.78-2.17.81-4.11,1.53-6.05,2.25Zm5.87,12.13c-2.84-1.52.53-2.63-.05-3.89q.88,1.74.05,3.89Zm20.71-48.43c-.21-.11-.42-.22-.62-.34.3-.99.6-1.99.96-3.16.91.34,1.58.59,2.73,1.02-1.29,1.04-2.18,1.76-3.07,2.48Zm6.14,76.29c.85-.94,1.46-1.6,2.24-2.45.88.64,1.69,1.22,2.91,2.1.84-1.74,1.57-3.23,2.36-4.85,2.05-.45,4.51,2.2,6.83-1.12-3.28.92-5.45.06-6.25-3.05-1.5.27-2.71.5-4.65.86.34-2.18.57-3.7.81-5.3h2.89c-.76-1.22-1.3-2.08-1.79-2.87-3.03.53-5.81,1.01-9.01,1.56,1.46-1.96-.54-4.79,2.31-6.74.88,1.45,1.65,2.71,2.42,3.97,3.16-2.12,3.16-2.29.15-6.86.71-1.09,1.47-2.26,2.57-3.94,1.8,4.17,4.67,4.98,7.97,3.25,1.87,8.4,4.1,16.52,5.32,24.79.64,4.38-.48,9.01-.87,14.37-6.76-3.87-11.62-8.42-16.21-13.72Zm233.63-51.9c.13.29.25.58.38.88-1,.49-2.14.82-2.95,1.53-.76.66-1.17,1.72-2.05,3.1-1.14-1.02-2.19-1.95-3.35-2.99,2.32-3.57,5.56-1.34,7.97-2.52Zm-18.69-105.1c.19.3,1.72-.47,2.58-.37.87.1,1.69.68,2.65,1.09-1.35,1.1-2.53,2.06-3.69,3.01-2.27-.88-4.53-1.76-7.78-3.03,2.69-.96,3.89-4.34,6.24-.7Zm-13.11,39.8c.21-.45.81-.91,1.29-.96.42-.04.9.47,1.78,1-1.06.55-1.65.98-2.3,1.12-.19.04-.88-.92-.77-1.16Zm-4.56,63.8c.02.49.03.98.04,1.47-2.69.14-5.38.29-8.07.44-.03-.44-.05-.88-.08-1.31,2.71-.2,5.41-.4,8.11-.6Zm-25.88,20.01c1.01.57,2.39.8,3.55.68,2.66-.28,5.27-.88,8.5-1.45.79.74,1.78,2.02,3.07,2.8,1.15.68,2.64.81,4.2,1.25-.28.9-.58,1.87-.87,2.78,2.29,2.09,5.76-.75,8.13,2.49-6.33,2.53-12.23,1.23-18.04-.48,2.34-.47,4.77-.96,7.2-1.45.08-.32.17-.63.26-.95-.93-.61-1.82-1.68-2.78-1.74-2.9-.19-6.05-1.27-8.45,1.61-.36.43-1.39.45-2.1.42-1.55-.07-3.1-.3-4.71-.47.38-.44.74-.87,1.27-1.49-2.58-.53-5.07-1.04-7.67-1.56,3.03-4.37,4.45-4.68,8.44-2.44Zm-8.69-122.82c-.67,2.94-1.58,3.55-4.31,2.48,1.61-.93,2.55-1.47,4.31-2.48Zm-2.62,36.05c.23-1.49.42-2.65.64-4.07q2.53,2.36-.64,4.07Zm-5.22,77.57c.63-1.64,1.28-3.54,2.09-5.38.97-2.2,2.75-2.72,4.55-1.23,1.33,1.1,2.67,2.35,3.53,3.81.83,1.41,1.38,3.04-.05,4.75-3.28,3.93-6.91,6.96-12.46,6.5-2.05-.17-4.11-.15-6.17-.21-.1,1.07-.19,2.15-.31,3.48h-3.61c.79-1.7,1.41-3.07,2.04-4.44.37-1.69.6-3.41,1.14-5.03.32-.94,1.12-1.7,1.71-2.53,0-.03-.01-.06-.01-.09.08-.07.16-.14.24-.21-.06.09-.13.17-.2.26-.01.01-.02.03-.03.04.12.74.24,1.49.41,2.55,2.37-.76,4.54-1.45,7.13-2.27Zm-6.57-117.79s.01-.02.01-.03c.01,0,.02,0,.03-.02.11-1.39-.21-3.26,2.89-2.04-1.18.82-2.04,1.44-2.89,2.04v.05h-.04c-.69,2.42,1.38,3,2.85,3.83-.15,2.73-1.21,4.35-3.8,4.72h0s.03.03.04.04h-.05c-.22,2.15-1.32,2.93-3.49,2.39.27-2.43,1.94-2.3,3.49-2.39.01-.01.01-.02.01-.03-2.27-1.58-3.5-3.78-3.8-6.56.86-2.34,2.99-1.76,4.75-2Zm-5.62,121.41c-2.08,4.16-3.13,8.09-8.04,9.29-.71-1.11-1.43-2.23-2.26-3.53h-6.91c-.52,2.39-1.02,4.69-1.63,7.51-8.75-1.43-14.75,3.15-20.62,7.84-3.29,2.62-6.32,5.56-9.46,8.36-.23-.18-.45-.37-.67-.55,1.8-5.2,4.16-10.28,5.24-15.63,1.16-5.68,4.25-8.87,9.4-10.63,4.39-1.49,7.91-3.87,9.68-8.47.53-1.36,1.94-2.39,3.12-3.77,2.41.71,4.94,1.46,7.75,2.3.06.78.13,1.78.22,3.17,1.45-.83,2.57-1.48,3.66-2.1,1.25,1.43.67,2.03-.69,2.49-2.32.77-4.1,1.94-3.05,4.84.14.07.34.21.38.17.91-.79,1.81-1.61,2.38-2.13,3.78.28,7.35.54,11.5.84Zm-39.7,2.06c3.09-6.92,4.7-8,10.98-7.5-2.46,4.43-7.11,4.69-10.98,7.5Zm12.59-117.32c1.34-2.43,4.94-4.07,8.84-3.72-.37,2.29-3.83,3.18-1.97,6.04.51.03,1.28.07,2.05.12,2.3-1.2,3.17-3.31,3.33-5.65,3.21-.46,6.28-2.3,8.79,1.26,1.25-1.14,2.22-2.02,3.23-2.94,2.52,2.79-2.15,3.96-1.17,6.29.02,0,.05-.01.07-.01-.01.02-.01.04-.02.06.55.37,1.09.74,1.64,1.11-.55.54-1.09,1.07-1.64,1.6-.2-.13-.41-.26-.62-.4.21-.77.42-1.54.62-2.31-.01,0-.03-.02-.04-.03,0-.01-.01-.01-.01-.02-1.8.25-3.61.49-5.75.78-.38-.91-.81-1.98-1.24-3.04q-3.9,1.03-3.63,4.31c.15.53.6,1.31.41,1.54-.8.96-1.8,1.74-2.11,2.03-2.57-.49-4.64-.89-6.99-1.33-.38,1.68-.44,2.78-.89,3.7-.39.81-1.2,1.41-2.12,2.44-1.92-1.86-3.73-3.62-5.66-5.5,1.99-2.26,3.62-4.04,4.88-6.33Zm-21.41,89.91c1.51.45,3.01.89,4.51,1.33,0-.01,0-.02-.01-.03.01,0,.01.01.02.01-.35-.84-.7-1.69-1.13-2.72,3.78-1.77,7.44-3.53,11.14-5.18,1.96-.87,3.92-.85,5.9.28,1.06.61,2.41,1.2,3.55,1.08,2.27-.22,2.51,1.44,3.37,2.66-2.01,2.18-4.11,2.78-6.72,1.41-1.19-.62-1.73.1-1.62,1.34,1.1.42,2.2.85,3.62,1.41-2.35,2.3-3.38.95-4.31-.78-1.65-.23-3-.46-4.72.78-2.78,2.02-6.11,1.7-9.08-.28,0,.01.01.01.01.02h-.02c.65,1.12,1.3,2.24,2.04,3.53-2.4.97-4.75,1.02-6.83-1.31-1.22-1.36-1.13-2.47.28-3.55Zm-7.38,15.19c.37-.42-.01-1.45.05-2.18.08-1.03.24-2.06.36-3.08v-8.38c1.08.31,2.03.38,2.1.65.38,1.57.57,3.17.78,4.77.08.65.02,1.32.03,1.97,2.01,1.22,4.05,2.39,6.01,3.67,1.94,1.26,3.8,2.63,5.84,4.06-.64,2.68-2.83,1.22-4.71,1.25.68.87,1.23,1.58,1.91,2.46-1.82,2.5-3.67,5.04-5.71,7.85-2.6-.4-5.21-.81-8.39-1.3.73-4.01-1.43-8.1,1.73-11.74Zm-8.69,19c1.3,10.5-1.44,18.22-8.86,24.31-4.88,4.01-9.42,8.42-14.71,12.36.64-1.31,1.13-2.73,1.95-3.92,4.56-6.68,8.9-13.39,11.23-21.32.89-3.05,3.13-5.81,5.18-8.36,1.05-1.31,3.05-1.85,5.21-3.07Zm-9.45-20.29c.35-.82.96-1.52,1.89-2.97.77,3.82,1.97,6.88,1.82,9.88-.16,3.33,2.18,4.43,3.57,6.83.14-.3.08.1-.11.17-8.03,3.2-10.43,10.62-13.07,17.74-1.28,3.45-2.62,6.76-5.61,10.13-.51-4.02-1.52-7.34-1.19-10.51.69-6.7,2.28-13.29,4.67-19.63.33-.85.97-1.68,1.67-2.29,2.93-2.58,4.84-5.82,6.36-9.35Zm-3.47-10.7c1.77-.56,2.77-.11,2.51,2.4-.99-.28-1.9-.52-2.5-.69-1.16.89-2.29,1.58-3.19,2.51-.66.68-1.02,1.65-1.52,2.49h.03l-.04.04c1.12.58,2.22,1.17,3.39,1.78.91-.97,1.72-1.84,2.85-3.06.09.97.31,1.52.13,1.78-2.18,3.07-4.43,6.1-7.29,10.01.31-4.2-2.04-7.5.92-10.51h0s.02-.03.02-.04h-3.74c-.33-1.02-.78-2.39-1.19-3.67,3.54-1.12,6.58-2.08,9.63-3.04Zm-9.28-11.74c.22-.76.49-1.99.95-2.1,1.36-.31,1.83.63,1.7,1.93-.05.45.1.91.15,1.36.53.73,1.13,1.42,1.58,2.2.68,1.15,1.26,2.36,1.99,3.75-1.06.09-2.37.21-3.88.34-.15,1.29-.08,2.65-.55,3.8-.16.4-1.63.27-2.55.39.26-3.63.5-6.97.73-10.31-.05-.46-.24-.95-.12-1.36Zm-3.49.92c-.44-1.17-.88-2.35-1.65-4.43,2.21,1.51,3.49,2.35,1.65,4.43Zm-13.08,33.02c1.85,1.11,3.07,1.84,4.29,2.57.16-.17.33-.34.5-.51-.42-.75-.69-1.65-1.28-2.22-1.95-1.86-4.11-3.55-3.61-6.74.05-.37-.28-.98-.62-1.22-3.41-2.43-2.47-5.27-.96-8.29.69-1.39,1.04-2.95,1.64-4.7,1.72.15,3.45.84,5.21-1.05.9-.97,3.71-.17,5.73-.17.76-2.55-1.93-2.42-2.79-3.67.44-2.99.87-5.97,1.29-8.82,2.01,1.84,3.19,3.92,3.05,7.4-.2,5.08,1.16,9.7,2.96,14.33.57,1.48.55,3.4.19,4.98-1.2,5.26-2.64,10.46-2.48,15.94.05,1.56-.51,3.13-.67,4.71-.36,3.77-1.36,7.64-.83,11.29,1.06,7.25-.78,13.83-3.15,20.43-.7,1.97-1.62,3.87-2.97,5.7-1.26-16.6-4.72-32.82-5.5-49.96Zm31.59,65.92c4.1-9.61,10.92-17.51,16.58-26.84-.33,7.71-8.8,21.47-16.58,26.84Zm2.41-23.03c-4.1,4.64-7.85,9.58-11.73,14.4-4.16,5.17-6.42,11.28-8.64,17.42-1.02,2.83-2.25,5.6-3.68,8.24-.86,1.6-2.29,2.89-3.54,4.41-3.23-4.49-3.42-11.21-.48-14.86,4.98-6.19,10.27-12.13,15.09-18.44,5.97-7.81,11.75-15.78,17.32-23.89,3.93-5.71,6.03-12.23,6.71-19.15.54-5.54,1.34-6.09,7.15-4.15-3.27,13.63-9.05,25.65-18.2,36.02Zm135.17-.2c-1.06.36-1.83.86-2.58.83-4.44-.16-8.87-.68-13.3-.62-10.94.15-21.89.3-32.8.95-6.01.35-11.65,2.31-17.09,5.3-6.35,3.49-13.05,6.74-20.73,5.99-2.67-.26-5.39-.53-7.97-1.21-6.91-1.83-13.81-3.52-21.85-2.59,2.19-4.02,3.89-7.55,5.96-10.85,3.46-5.52,7.14-10.9,12.85-14.46,2.92-1.82,5.68-2.41,8.69-.03,2.06,1.63,4.24,2.99,7.32,1.88,1.44-.52,3.38.34,5.09.57v-2.36c4.57-1.76,9.18-3.57,14.61-1.79-2.07,1.93-4.58.8-7.1,1.46.62,2.83-2.52,2.85-3.7,4.57,1.49,1.08,3.04,2.06,4.42,3.25.89.76,1.52,1.81,2.65,3.21h8.77c-.07.8-.16,1.66-.26,2.75,1.85.64,3.72,1.28,5.98,2.06.15-1.23.26-2.07.38-2.96.17-.04.5-.23.73-.15.99.36,2.22,1.39,2.86,1.1,3-1.37,5.39-.04,7.86,1.24,3.11-.32,6.3-.35,9.32-1.06,2.51-.59,4.86-1.93,7.21-3.08.26-.13.09-1.16.11-1.77,2.55.26,5.01.51,7.65.78-.29,1.01-.49,1.67-.74,2.52,1.09.56,2.18,1.12,3.27,1.67,3.3-.24,6.61-.6,9.92-.66,1.46-.02,2.93.6,4.33,1.48-1.23.15-2.46.3-3.9.47.62.45,1.12.82,2.04,1.51Zm-9.44-27.32c1.44-1.05,2.42-2,2.61-1.87,2.69,1.96,5.53.88,8.49.28-1.56,2.66-2.63,2.82-11.1,1.59Zm10.08-37.99c-3.02.84-6.05,1.61-9.11,2.28-1.28.28-2.64.21-2.95-1.5-.28-1.57,1.11-1.87,1.96-2.74,1.73-1.79,4.39,2.42,5.49-1.11,1.89.38,3.78.77,6.28,1.28-.89.98-1.2,1.66-1.67,1.79Zm4.89,3.06c1.68.58,3.21,1.12,4.97,1.72-1.11,3.11-3.42,3.75-6.71,4.36.68-2.38,1.15-4,1.74-6.08Zm5.67,59.2c-.34.04-.74-.35-1.11-.55.26-.32.47-.84.78-.92.34-.08.78.25,1.42.49-.48.45-.76.94-1.09.98Zm11.54-20.71c-1.61,1.59-2.99,2.18-4.7-.01-.52-.67-1.94-.84-2.97-.88-2.96-.11-5.92-.04-9-.04-.21-1.96.6-2.76,2.68-2.66,4.06.2,8.13.19,12.2.33,1.54.05,3.07.3,5.06.5-1.32,1.1-2.36,1.86-3.27,2.76Zm1.17-20.64c-.37.83-.56,1.84-1.15,2.47-1.84,1.96-3.71,1.21-4.64-1.76-.74-.13-1.49-.27-2.7-.49,4.77-5.27,10.5-2.59,15.68-3.01-1.88,2.29-4.76,1.97-7.19,2.79Zm6.54-53.23c2.19-3.16,6.61-1.6,8.75-5.2.84,1.89,1.37,3.09,1.88,4.24q-4.18,2.85-10.63.96Zm6.85,35.15c.63-1.75,1.06-2.96,1.67-4.69,1.13.76,2,1.34,3.37,2.25-1.92.94-3.22,1.56-5.04,2.44Zm5.32-43c-1.67-2.58-5.51,1.52-6.47-2.69,2.02-.33,3.9-.64,6.65-1.09-.07,1.61-.13,2.69-.18,3.78Zm33.11,11.61c.22.92.44,1.85.66,2.77-.5.12-1.01.24-1.51.36-.27-.86-.59-1.72-.75-2.6,0-.08,1.04-.35,1.6-.53Zm-9.92-27.04c-1.44,1.14-2.89,2.29-4.31,3.42-.68-.92-1.43-1.96-2.3-3.16,2.49-.76,4.56-2.63,6.61-.26Zm4.87,113.2c-3.43-5.29-8.91-5.71-15.49-5.51,2.24-1.78,3.75-2.98,5.47-4.35-4.86-2.04-9.77-1.9-14.84-1.2-1.96-3.2-1.11-5.47.41-7.42,2.11,1.33,3.97,2.44,5.74,3.68.72.5,1.13,1.44,1.87,1.88.72.43,1.67.49,2.52.67.17.04,5.13-1.21,5.52-1.16-.16-1.25-.31-2.43-.46-3.63.19-.21.46-.65.57-.61,1.78.58,3.6-2.7,5.52.37-.35.75-.79,1.7-.94,2,.9,7.63,7.44,9.46,12.78,13.52-3.3.67-5.86,1.19-8.67,1.76Zm13.87-84.63c-.48-.37-.96-.73-1.44-1.1-.47,1.81-.94,3.63-1.42,5.44-.34-.12-.68-.24-1.02-.35.31-1.91.08-4.02,2.37-5.19.31-.48.62-.97.94-1.45.38.78.76,1.56,1.14,2.34-.19.1-.38.21-.57.31Zm9.89-.84c-.63-.18-1.13-.78-1.69-1.19.44-.56.87-1.58,1.35-1.6,1.45-.08,3.05-.07,4.33.5.58.26.54,1.92.84,3.2-2.33-.42-3.62-.55-4.83-.91Zm45.3,74.69c-.85-1.71-1.5-3-2.13-4.29q2.74-1.98,5.54,1.27c-.97.86-1.96,1.73-3.41,3.02Z"/><path d="m432.58,320.5s4.67.99,6.67.99c0,0-.24,1.78-3.12,1.89s-3.21-1.87-3.55-2.88Z"/><path d="m159.55,123.74c-.2.52-.37,1.2.04,1.57.15.14.36.2.56.27,1.22.41,2.41,1.13,3.01,2.27.67,1.27.55,2.91,1.46,4.01.78.94,2.26,1.22,3.32.61.26-.15.51-.36.63-.63.08-.19.1-.4.11-.61.08-1.15.12-2.44-.67-3.29-.42-.45-1.06-.74-1.28-1.33-.07-.18-.08-.38-.16-.56-.27-.58-1.09-.68-1.48-1.18-.22-.28-.27-.65-.4-.98s-.4-.66-.75-.66c-.21,0-.4.13-.59.24-.4.23-3.89.45-3.81.25Z"/><path d="m85.02,172.4c1.26.1,2.65.16,3.65-.61.46-.35,1.05-.88,1.5-.52.13.1.2.26.27.41.4.92.81,1.83,1.21,2.75.58-.35.87-1.03,1.27-1.58s1.15-1.01,1.74-.68c.18.46.02,1.03-.37,1.33-.47.35-1.21.37-1.47.89-.17.34-.04.77.19,1.08s.54.55.78.84c1.02,1.24.55,3.26-.69,4.27-.21.17-.44.33-.7.42-1.12.39-2.31-.52-2.82-1.58s-.6-2.28-1.01-3.39c-.42-1.13-1.1-1.55-2.08-2.09-.24-.13-1.81-1.56-1.48-1.53Z"/></g><g id="ground"><path d="m162.25,473.5s-3,72,34,149l3,7s258-19,371-14c0,0-4-12-18-15,0,0,0-3-7-6s-115-57-150-59c0,0-3-1-6,0s-8,2-10,1c0,0-5-1-7-3s-12-9-16-15-10-10-15-15-30.63-32-56.81-30c0,0-3.19-1-26.19,4,0,0-15,4-29-3,0,0-8-4-10-10,0,0-1-3-3-4s-8,1-8,1c0,0-7,2-10,4s-13,5-16,5c0,0-6,2-14,2s-6,1-6,1Z"/></g><g id="bird"><path d="m688.33,355.76c10.45,3.58,21.2,3.67,32.03,2.99,2.53-.16,5.08-.06,7.62-.16,6.4-.26,12.24,1.39,17.72,5.35,6.83-5.68,14.93-5.61,23.11-5.25,8.57.38,17.15.95,25.63-.93,2.56-.57,5.1-1.24,7.72-1.57-4.94,4.63-11.11,5.69-17.46,6.29-6.16.58-12.34.97-18.46,1.83-9.95,1.4-16.91,6.75-20.46,16.94-.55-.87-.98-1.38-1.21-1.97-3.32-8.44-9.68-13.31-18.41-14.75-6.56-1.08-13.24-1.45-19.87-2.05-6.58-.59-12.78-2.1-17.95-6.71Z"/></g><g id="bird2"><path d="m853.51,438.89c-6.08,2.75-12.67,2.55-19.09,3.31-2.51.29-5.03.6-7.49,1.15-5.26,1.17-9.23,4.04-11.34,9.17-.24.58-.57,1.12-.88,1.66-.05.08-.28.06-.42.09-.25-.16-.65-.26-.73-.48-2.94-8.31-9.81-10.62-17.57-11.48-3.78-.42-7.61-.4-11.36-.98-3.26-.5-6.44-1.57-9.64-2.39-.87-.73-1.75-1.47-2.63-2.2,7.35,2.18,14.59,2.31,21.9,1.97,2.85-.13,5.72-.19,8.57-.14,4.56.09,6.57.78,11.47,3.74,4.94-3.91,10.94-4.06,17.02-3.74,8.23.44,16.43.6,24.63-1.77-.81.7-1.62,1.39-2.43,2.09Z"/></g><g id="bird3"><path d="m795.25,238.36c3.94,1.35,7.99,1.38,12.07,1.13.96-.06,1.92-.02,2.87-.06,2.41-.1,4.61.52,6.68,2.02,2.57-2.14,5.63-2.12,8.71-1.98,3.23.14,6.47.36,9.66-.35.96-.21,1.92-.47,2.91-.59-1.86,1.75-4.19,2.14-6.58,2.37-2.32.22-4.65.37-6.96.69-3.75.53-6.38,2.54-7.72,6.39-.21-.33-.37-.52-.46-.74-1.25-3.18-3.65-5.02-6.94-5.56-2.47-.41-4.99-.55-7.49-.77-2.48-.22-4.82-.79-6.77-2.53Z"/></g><g id="circle"><path class="cls-9" d="m902.76,632.95c27.27-54.9,42.66-117.08,42.66-182.94,0-222.58-175.65-403.02-392.33-403.02S160.75,227.43,160.75,450.01c0,65.6,15.26,127.54,42.33,182.28"/></g><g id="half_circle"><path d="m14.75,668s163.5-72.5,537.5-67.5c0,0,239,6,513,63,0,0-316-35-512-33-195.89,2-323,2-538.5,37.5Z"/></g></svg>